<svg width="32" height="32" viewBox="0 0 32 32" fill="none" xmlns="http://www.w3.org/2000/svg">
<circle cx="16" cy="16" r="15.5" stroke="black"/>
<path d="M14.036 9.71439H17.9646C17.9646 9.19343 17.7576 8.69381 17.3892 8.32543C17.0209 7.95706 16.5212 7.7501 16.0003 7.7501C15.4793 7.7501 14.9797 7.95706 14.6113 8.32543C14.2429 8.69381 14.036 9.19343 14.036 9.71439V9.71439ZM12.8574 9.71439C12.8574 8.88085 13.1885 8.08145 13.7779 7.49205C14.3673 6.90265 15.1667 6.57153 16.0003 6.57153C16.8338 6.57153 17.6332 6.90265 18.2226 7.49205C18.812 8.08145 19.1431 8.88085 19.1431 9.71439H24.0538C24.2101 9.71439 24.36 9.77648 24.4705 9.88699C24.581 9.9975 24.6431 10.1474 24.6431 10.3037C24.6431 10.46 24.581 10.6099 24.4705 10.7204C24.36 10.8309 24.2101 10.893 24.0538 10.893H23.0246L22.0683 22.3667C21.9988 23.2014 21.6181 23.9795 21.0017 24.5466C20.3854 25.1138 19.5784 25.4286 18.7409 25.4287H13.2597C12.4221 25.4286 11.6152 25.1138 10.9988 24.5466C10.3825 23.9795 10.0018 23.2014 9.93221 22.3667L8.97599 10.893H7.94671C7.79042 10.893 7.64053 10.8309 7.53002 10.7204C7.41951 10.6099 7.35742 10.46 7.35742 10.3037C7.35742 10.1474 7.41951 9.9975 7.53002 9.88699C7.64053 9.77648 7.79042 9.71439 7.94671 9.71439H12.8574ZM11.1068 22.2685C11.1518 22.8086 11.3981 23.3121 11.7968 23.6792C12.1956 24.0462 12.7177 24.25 13.2597 24.2501H18.7409C19.2828 24.25 19.805 24.0462 20.2037 23.6792C20.6025 23.3121 20.8488 22.8086 20.8937 22.2685L21.8428 10.893H10.1585L11.1068 22.2685ZM14.2324 13.643C14.3887 13.643 14.5386 13.705 14.6491 13.8156C14.7596 13.9261 14.8217 14.076 14.8217 14.2322V20.9108C14.8217 21.0671 14.7596 21.217 14.6491 21.3275C14.5386 21.438 14.3887 21.5001 14.2324 21.5001C14.0761 21.5001 13.9262 21.438 13.8157 21.3275C13.7052 21.217 13.6431 21.0671 13.6431 20.9108V14.2322C13.6431 14.076 13.7052 13.9261 13.8157 13.8156C13.9262 13.705 14.0761 13.643 14.2324 13.643ZM18.3574 14.2322C18.3574 14.076 18.2953 13.9261 18.1848 13.8156C18.0743 13.705 17.9244 13.643 17.7681 13.643C17.6118 13.643 17.462 13.705 17.3514 13.8156C17.2409 13.9261 17.1788 14.076 17.1788 14.2322V20.9108C17.1788 21.0671 17.2409 21.217 17.3514 21.3275C17.462 21.438 17.6118 21.5001 17.7681 21.5001C17.9244 21.5001 18.0743 21.438 18.1848 21.3275C18.2953 21.217 18.3574 21.0671 18.3574 20.9108V14.2322Z" fill="black"/>
</svg>
