<svg width="19" height="19" viewBox="0 0 19 19" fill="none" xmlns="http://www.w3.org/2000/svg">
<circle cx="9.5" cy="9.5" r="9" stroke="black"/>
<path d="M8.7502 6.75H10.6502C10.6502 6.48478 10.5501 6.23043 10.3719 6.04289C10.1938 5.85536 9.95215 5.75 9.7002 5.75C9.44824 5.75 9.2066 5.85536 9.02844 6.04289C8.85028 6.23043 8.7502 6.48478 8.7502 6.75V6.75ZM8.0377 6.75C8.0377 6.52019 8.0807 6.29262 8.16425 6.0803C8.24779 5.86798 8.37025 5.67507 8.52463 5.51256C8.67901 5.35006 8.86228 5.22116 9.06398 5.13321C9.26569 5.04527 9.48187 5 9.7002 5C9.91852 5 10.1347 5.04527 10.3364 5.13321C10.5381 5.22116 10.7214 5.35006 10.8758 5.51256C11.0301 5.67507 11.1526 5.86798 11.2361 6.0803C11.3197 6.29262 11.3627 6.52019 11.3627 6.75H14.0939C14.1884 6.75 14.279 6.78951 14.3459 6.85983C14.4127 6.93016 14.4502 7.02554 14.4502 7.125C14.4502 7.22446 14.4127 7.31984 14.3459 7.39017C14.279 7.46049 14.1884 7.5 14.0939 7.5H13.4669L12.9112 13.5555C12.8686 14.0195 12.6633 14.4501 12.3353 14.7634C12.0074 15.0767 11.5804 15.2502 11.1375 15.25H8.26285C7.82008 15.2501 7.39317 15.0765 7.06535 14.7632C6.73752 14.45 6.53229 14.0194 6.48967 13.5555L5.93345 7.5H5.30645C5.21196 7.5 5.12135 7.46049 5.05454 7.39017C4.98773 7.31984 4.9502 7.22446 4.9502 7.125C4.9502 7.02554 4.98773 6.93016 5.05454 6.85983C5.12135 6.78951 5.21196 6.75 5.30645 6.75H8.0377ZM8.9877 9.125C8.9877 9.02554 8.95016 8.93016 8.88335 8.85984C8.81654 8.78951 8.72593 8.75 8.63145 8.75C8.53696 8.75 8.44635 8.78951 8.37954 8.85984C8.31273 8.93016 8.2752 9.02554 8.2752 9.125V12.875C8.2752 12.9745 8.31273 13.0698 8.37954 13.1402C8.44635 13.2105 8.53696 13.25 8.63145 13.25C8.72593 13.25 8.81654 13.2105 8.88335 13.1402C8.95016 13.0698 8.9877 12.9745 8.9877 12.875V9.125ZM10.7689 8.75C10.8634 8.75 10.954 8.78951 11.0209 8.85984C11.0877 8.93016 11.1252 9.02554 11.1252 9.125V12.875C11.1252 12.9745 11.0877 13.0698 11.0209 13.1402C10.954 13.2105 10.8634 13.25 10.7689 13.25C10.6745 13.25 10.5838 13.2105 10.517 13.1402C10.4502 13.0698 10.4127 12.9745 10.4127 12.875V9.125C10.4127 9.02554 10.4502 8.93016 10.517 8.85984C10.5838 8.78951 10.6745 8.75 10.7689 8.75ZM7.19885 13.4835C7.22447 13.7618 7.34764 14.0201 7.54435 14.2081C7.74105 14.396 7.9972 14.5001 8.26285 14.5H11.1375C11.4032 14.5001 11.6593 14.396 11.856 14.2081C12.0528 14.0201 12.1759 13.7618 12.2015 13.4835L12.7516 7.5H6.6488L7.19885 13.4835Z" fill="black"/>
</svg>
