<svg width="30" height="30" viewBox="0 0 30 30" fill="none" xmlns="http://www.w3.org/2000/svg">
<circle cx="15" cy="15" r="15" fill="#07AB6B"/>
<rect x="3" y="3" width="24" height="24" rx="5" fill="#07AB6B"/>
<path d="M22.3998 10.34L19.6598 7.59998C19.3022 7.26408 18.8336 7.07134 18.3431 7.05843C17.8527 7.04553 17.3746 7.21335 16.9998 7.52998L7.99981 16.53C7.67657 16.8559 7.47531 17.2832 7.42981 17.74L6.99981 21.91C6.98634 22.0564 7.00534 22.2041 7.05547 22.3424C7.1056 22.4806 7.18561 22.6062 7.28981 22.71C7.38325 22.8027 7.49406 22.876 7.6159 22.9258C7.73774 22.9755 7.8682 23.0007 7.99981 23H8.08981L12.2598 22.62C12.7166 22.5745 13.1438 22.3732 13.4698 22.05L22.4698 13.05C22.8191 12.6809 23.0079 12.1885 22.9948 11.6805C22.9817 11.1725 22.7677 10.6905 22.3998 10.34V10.34ZM12.0798 20.62L9.07981 20.9L9.34981 17.9L14.9998 12.32L17.6998 15.02L12.0798 20.62ZM18.9998 13.68L16.3198 11L18.2698 8.99998L20.9998 11.73L18.9998 13.68Z" fill="white"/>
</svg>
