<svg width="24" height="24" viewBox="0 0 24 24" fill="none" xmlns="http://www.w3.org/2000/svg">
<path d="M1 15C1 14 1.21667 13.125 1.65 12.375C2.08333 11.625 2.65 11 3.35 10.5C4.05 10 4.85 9.625 5.75 9.375C6.65 9.125 7.56667 9 8.5 9C9.43333 9 10.35 9.125 11.25 9.375C12.15 9.625 12.95 10 13.65 10.5C14.35 11 14.9167 11.625 15.35 12.375C15.7833 13.125 16 14 16 15H1ZM18 23V15C18 13.0833 17.4127 11.4543 16.238 10.113C15.0627 8.771 13.4083 7.83333 11.275 7.3L11 5H16V1H18V5H23L21.35 21.55C21.3 21.95 21.1207 22.2917 20.812 22.575C20.504 22.8583 20.1333 23 19.7 23H18ZM1 19V17H16V19H1ZM2 23C1.71667 23 1.47933 22.904 1.288 22.712C1.096 22.5207 1 22.2833 1 22V21H16V22C16 22.2833 15.9043 22.5207 15.713 22.712C15.521 22.904 15.2833 23 15 23H2Z" fill="black"/>
</svg>
