<svg width="24" height="24" viewBox="0 0 24 24" fill="none" xmlns="http://www.w3.org/2000/svg">
<path d="M15.5399 8.45992C17.4999 10.4199 17.4999 13.5799 15.5399 15.5399C13.5799 17.4999 10.4199 17.4999 8.46992 15.5399C6.51992 13.5799 6.49992 10.4199 8.46992 8.45992C10.4399 6.49992 13.5799 6.49992 15.5399 8.45992ZM19.4699 4.54992C19.4699 4.54992 18.4999 4.66992 17.4299 5.35992C17.2595 4.24399 16.7334 3.21288 15.9299 2.41992C15.4148 2.91666 15.0414 3.54168 14.848 4.23067C14.6547 4.91965 14.6484 5.64772 14.8299 6.33992C16.2199 6.69992 17.2999 7.77992 17.6599 9.16992C18.7799 9.46992 20.3399 9.31992 21.5799 8.06992C20.796 7.2779 19.7803 6.75603 18.6799 6.57992C19.0699 5.99992 19.3799 5.32992 19.4699 4.54992ZM4.52992 19.4499C4.52992 19.4499 5.49992 19.3299 6.56992 18.6399C6.71992 19.6799 7.21992 20.7299 8.06992 21.5799C9.31992 20.3399 9.46992 18.7799 9.16992 17.6599C8.48839 17.4841 7.86642 17.1288 7.36872 16.6311C6.87102 16.1334 6.51577 15.5115 6.33992 14.8299C5.21992 14.5299 3.65992 14.6799 2.41992 15.9299C3.25992 16.7699 4.28992 17.2699 5.31992 17.4199C4.92992 17.9999 4.61992 18.6799 4.52992 19.4499Z" fill="black"/>
</svg>
