<svg width="10" height="10" viewBox="0 0 10 10" fill="none" xmlns="http://www.w3.org/2000/svg">
<ellipse cx="5" cy="4.75" rx="5" ry="4.75" fill="#07AB6B"/>
<rect x="1" y="0.949951" width="8" height="7.6" rx="3.8" fill="#07AB6B"/>
<path d="M7.46677 3.27424L6.55343 2.40657C6.43423 2.3002 6.27803 2.23917 6.11454 2.23508C5.95106 2.231 5.79169 2.28414 5.66677 2.38441L2.66677 5.23441C2.55902 5.33763 2.49193 5.47292 2.47677 5.61757L2.33343 6.93807C2.32894 6.98445 2.33528 7.03121 2.35199 7.075C2.36869 7.11878 2.39537 7.15853 2.4301 7.19141C2.46125 7.22076 2.49818 7.24398 2.5388 7.25973C2.57941 7.27549 2.6229 7.28348 2.66677 7.28324H2.69677L4.08677 7.16291C4.23903 7.1485 4.38144 7.08476 4.4901 6.98241L7.4901 4.13241C7.60654 4.01555 7.66947 3.8596 7.66509 3.69874C7.66072 3.53788 7.5894 3.38523 7.46677 3.27424ZM4.02677 6.52957L3.02677 6.61824L3.11677 5.66824L5.0001 3.90124L5.9001 4.75624L4.02677 6.52957ZM6.33343 4.33191L5.4401 3.48324L6.0901 2.84991L7.0001 3.71441L6.33343 4.33191Z" fill="white"/>
</svg>
